<?xml version="1.0" encoding="UTF-8" standalone="no"?>
<!-- Created with Inkscape (http://www.inkscape.org/) -->

<svg
   xmlns:dc="http://purl.org/dc/elements/1.1/"
   xmlns:cc="http://creativecommons.org/ns#"
   xmlns:rdf="http://www.w3.org/1999/02/22-rdf-syntax-ns#"
   xmlns:svg="http://www.w3.org/2000/svg"
   xmlns="http://www.w3.org/2000/svg"
   xmlns:sodipodi="http://sodipodi.sourceforge.net/DTD/sodipodi-0.dtd"
   xmlns:inkscape="http://www.inkscape.org/namespaces/inkscape"
   width="250"
   height="50"
   id="svg2"
   version="1.1"
   inkscape:version="0.48.3.1 r9886"
   sodipodi:docname="get_started.svg">
  <defs
     id="defs4" />
  <sodipodi:namedview
     id="base"
     pagecolor="#ffffff"
     bordercolor="#666666"
     borderopacity="1.0"
     inkscape:pageopacity="0.0"
     inkscape:pageshadow="2"
     inkscape:zoom="4"
     inkscape:cx="110.14433"
     inkscape:cy="21.956011"
     inkscape:document-units="px"
     inkscape:current-layer="g3821"
     showgrid="false"
     inkscape:window-width="1213"
     inkscape:window-height="883"
     inkscape:window-x="219"
     inkscape:window-y="73"
     inkscape:window-maximized="0" />
  <metadata
     id="metadata7">
    <rdf:RDF>
      <cc:Work
         rdf:about="">
        <dc:format>image/svg+xml</dc:format>
        <dc:type
           rdf:resource="http://purl.org/dc/dcmitype/StillImage" />
        <dc:title />
      </cc:Work>
    </rdf:RDF>
  </metadata>
  <g
     inkscape:label="Layer 1"
     inkscape:groupmode="layer"
     id="layer1"
     transform="translate(0,-1002.3622)">
    <g
       id="g3821"
       transform="matrix(1.2306292,0,0,1.2306292,-18.761036,-231.85295)">
      <path
         inkscape:connector-curvature="0"
         id="path2995"
         d="m 162.35292,1024.2671 c 0.83438,0.3939 2.17824,-0.8524 3.44714,-2.1213 3.19989,-3.1999 6.46958,-8.1857 4.15425,-12.8163"
         style="opacity:1;fill:none;stroke:#81a75c;stroke-width:0.75652355000000004;stroke-linecap:round;stroke-linejoin:round;stroke-miterlimit:4;stroke-opacity:1;stroke-dasharray:none" />
      <path
         inkscape:connector-curvature="0"
         id="path2999"
         d="m 166.24201,1012.8354 c 0.30931,-0.3729 -0.34148,-0.012 0.26517,-0.6188 0.9928,-0.9928 1.63496,-2.1652 2.65165,-3.1819 0.11048,-0.1105 0.93561,-1.7161 1.06066,-1.591 1.23681,1.2368 2.02621,3.6851 3.35876,4.6846"
         style="opacity:1;fill:none;stroke:#81a75c;stroke-width:0.75652355000000004;stroke-linecap:round;stroke-linejoin:round;stroke-miterlimit:4;stroke-opacity:1;stroke-dasharray:none" />
      <path
         id="text3073"
         style="font-size:13.81407165999999975px;font-style:normal;font-variant:normal;font-weight:normal;font-stretch:normal;line-height:125%;letter-spacing:0px;word-spacing:0px;fill:#81a75c;fill-opacity:1;stroke:none;font-family:Nothing You Could Do;-inkscape-font-specification:Nothing You Could Do"
         d="m 152.9795,1026.6822 c -0.10792,0 -0.2222,0.037 -0.33012,0.127 -0.10792,0.081 -0.19098,0.2042 -0.25393,0.3301 -0.054,0.1259 -0.0466,0.2222 0.0254,0.3301 0.11691,0.1799 0.24759,0.2958 0.35551,0.3048 0.10792,0.01 0.18199,-0.037 0.25393,-0.127 0.081,-0.09 0.15078,-0.2116 0.17776,-0.3555 0.036,-0.1439 0.036,-0.2714 0,-0.4063 -0.036,-0.1349 -0.12062,-0.2122 -0.22854,-0.2032 z m -34.96687,-3.2249 c 0.34175,0 0.63536,0.076 0.91416,0.2285 0.063,0.1169 0.0185,0.2904 -0.15236,0.5333 -0.16188,0.2428 -0.38884,0.4994 -0.68562,0.7872 -0.2878,0.2878 -0.62162,0.5755 -0.99035,0.8633 -0.35974,0.2878 -0.69198,0.5296 -1.01574,0.7364 -0.32377,0.1979 -0.62055,0.3434 -0.86338,0.4063 -0.23383,0.063 -0.37032,0.026 -0.4063,-0.1269 -0.10792,-0.3508 -0.10633,-0.7084 -0.0254,-1.0412 0.0899,-0.3417 0.22484,-0.6517 0.43169,-0.9395 0.21584,-0.2878 0.48142,-0.546 0.7872,-0.7618 0.31477,-0.2249 0.63219,-0.391 0.96495,-0.5079 0.34176,-0.1259 0.69938,-0.1777 1.04114,-0.1777 z m 22.65101,-0.4317 c 0.19786,0.013 0.34017,0.059 0.45709,0.1269 0.24281,0.1259 0.38089,0.3069 0.3809,0.5587 0.009,0.2518 -0.0905,0.547 -0.27933,0.8888 -0.17988,0.3327 -0.42323,0.6829 -0.71102,1.0157 -0.2788,0.3328 -0.57241,0.6264 -0.91417,0.9142 -0.34176,0.2788 -0.67557,0.5073 -0.99034,0.6602 -0.30578,0.1439 -0.57876,0.2047 -0.8126,0.1778 -0.23383,-0.036 -0.38513,-0.1947 -0.45708,-0.4825 -0.063,-0.2428 -0.063,-0.51 0,-0.7618 0.072,-0.2518 0.17723,-0.4936 0.33012,-0.7364 0.15289,-0.2429 0.32641,-0.4862 0.53326,-0.7111 0.20685,-0.2338 0.42799,-0.4369 0.63484,-0.6348 0.21584,-0.1979 0.41159,-0.3714 0.60944,-0.5333 0.19786,-0.1708 0.35657,-0.3147 0.48248,-0.4316 0.2788,-0.041 0.53855,-0.064 0.73641,-0.051 z m -28.13601,-0.5333 c 0.19785,0.054 0.31371,0.137 0.30472,0.2539 -1e-5,0.117 -0.0683,0.2534 -0.20315,0.4063 -0.12591,0.1529 -0.30843,0.3206 -0.53326,0.4825 -0.22485,0.1529 -0.45921,0.2804 -0.71102,0.4063 -0.24283,0.1259 -0.47719,0.2328 -0.71102,0.3047 -0.22484,0.063 -0.41476,0.078 -0.55866,0.051 -0.018,0 0.0354,-0.053 0.15237,-0.1523 0.11691,-0.108 0.26081,-0.2371 0.43169,-0.381 0.17986,-0.1438 0.37719,-0.2951 0.58405,-0.457 0.21584,-0.1709 0.40417,-0.3222 0.58405,-0.4571 0.18886,-0.1439 0.35656,-0.2492 0.48247,-0.3301 0.12591,-0.09 0.16876,-0.136 0.17776,-0.127 z m -51.904344,0 c 0.197853,0.054 0.288317,0.137 0.279328,0.2539 -5e-6,0.117 -0.06825,0.2534 -0.203148,0.4063 -0.125913,0.1529 -0.283036,0.3206 -0.50787,0.4825 -0.224842,0.1529 -0.459203,0.2804 -0.711019,0.4063 -0.242828,0.1259 -0.502582,0.2328 -0.736411,0.3047 -0.224841,0.063 -0.38937,0.078 -0.533264,0.051 -0.01799,0 0.01005,-0.053 0.126967,-0.1523 0.116914,-0.108 0.260811,-0.2371 0.43169,-0.381 0.179868,-0.1438 0.377197,-0.2951 0.584051,-0.457 0.215842,-0.1709 0.42957,-0.3222 0.609444,-0.4571 0.188861,-0.1439 0.33117,-0.2492 0.457084,-0.3301 0.125905,-0.09 0.19415,-0.136 0.203148,-0.127 z m 79.557884,-0.076 c -0.12423,0 -0.2669,0.01 -0.4063,0.025 -0.21585,0.027 -0.48142,0.1725 -0.7872,0.4063 -0.29679,0.2249 -0.59199,0.5052 -0.88877,0.838 -0.29679,0.3328 -0.56977,0.6872 -0.8126,1.0919 -0.24282,0.3957 -0.40894,0.7904 -0.50787,1.1681 -0.0989,0.3688 -0.0899,0.71 0,1.0158 0.0989,0.3057 0.3333,0.5327 0.71102,0.6856 0.39572,0.1529 0.79778,0.1989 1.1935,0.127 0.39571,-0.081 0.76657,-0.2487 1.11731,-0.4825 0.35974,-0.2429 0.67716,-0.5381 0.96496,-0.8888 0.29678,-0.3507 0.53114,-0.7142 0.71101,-1.0919 0.18887,-0.3777 0.30155,-0.7486 0.35551,-1.1173 0.054,-0.3778 0.0407,-0.7116 -0.0762,-0.9904 -0.11692,-0.2788 -0.33647,-0.4909 -0.66023,-0.6348 -0.23608,-0.1147 -0.54149,-0.1642 -0.91416,-0.1524 z m -4.79938,-0.3809 c -0.22484,0.01 -0.47402,0.07 -0.7618,0.1778 -0.2878,0.099 -0.60681,0.2264 -0.93956,0.4063 -0.32377,0.1798 -0.63379,0.3698 -0.93956,0.5586 -0.2968,0.1889 -0.57718,0.3788 -0.83799,0.5587 -0.25182,0.1709 -0.44016,0.3074 -0.58405,0.4063 -0.045,-0.1619 -0.0376,-0.3206 0.0254,-0.4825 0.0719,-0.1619 0.12379,-0.3296 0.17776,-0.4825 0.0539,-0.1619 0.0852,-0.3132 0.0762,-0.4571 0,-0.1528 -0.0905,-0.3057 -0.27933,-0.4316 -0.036,0.018 -0.11904,0.147 -0.25394,0.3809 -0.1349,0.2338 -0.30261,0.5216 -0.48247,0.8633 -0.17988,0.3328 -0.3772,0.7052 -0.58405,1.092 -0.19786,0.3867 -0.36239,0.7337 -0.53327,1.0665 -0.16188,0.3327 -0.31477,0.6131 -0.43169,0.838 -0.10792,0.2158 -0.16135,0.3465 -0.15236,0.3555 0.054,0.1619 0.16823,0.1973 0.33012,0.1523 0.16188,-0.054 0.35022,-0.1666 0.58405,-0.3555 0.24282,-0.1978 0.5158,-0.4396 0.81259,-0.7364 l 0.93956,-0.9395 c 0.33276,-0.3328 0.67398,-0.6502 1.01574,-0.965 0.35075,-0.3238 0.69197,-0.6041 1.01574,-0.838 0.32376,-0.2428 0.62637,-0.4163 0.91417,-0.5332 0.29678,-0.117 0.56235,-0.1318 0.7872,-0.051 0.0809,0.2608 0.0957,0.5174 0.0508,0.7872 -0.045,0.2608 -0.12063,0.5338 -0.22854,0.8126 -0.10793,0.2698 -0.25341,0.5502 -0.40629,0.8379 -0.14391,0.2788 -0.2714,0.5502 -0.4063,0.838 -0.12591,0.2788 -0.22379,0.5666 -0.30472,0.8634 -0.072,0.2878 -0.10317,0.592 -0.0762,0.8888 0.009,0.018 0.055,0.055 0.12696,0.127 0.0719,0.063 0.1238,0.079 0.17776,0.025 0.054,-0.054 0.11638,-0.1296 0.15236,-0.2285 0.036,-0.1079 0.0582,-0.2222 0.0762,-0.3301 0.018,-0.1169 0.0164,-0.2148 0.0254,-0.3047 0.018,-0.099 0.0418,-0.1672 0.0508,-0.2032 0.027,-0.063 0.0788,-0.2232 0.17776,-0.4571 0.10791,-0.2428 0.23858,-0.492 0.35551,-0.7618 0.1259,-0.2788 0.23118,-0.5279 0.33011,-0.7618 0.10791,-0.2428 0.17616,-0.3941 0.20315,-0.4571 0.24282,-0.5666 0.37031,-1.022 0.4063,-1.3458 0.045,-0.3328 0.0317,-0.5671 -0.0762,-0.711 -0.10792,-0.1439 -0.29944,-0.2122 -0.53326,-0.2032 z m 16.30264,-0.5079 c -0.22766,0.01 -0.4682,0.087 -0.71102,0.2286 -0.32378,0.1799 -0.64119,0.4126 -0.96495,0.7364 -0.32378,0.3148 -0.65019,0.6872 -0.96496,1.0919 -0.30579,0.3957 -0.57717,0.7978 -0.83798,1.1935 -0.26082,0.3867 -0.50418,0.7428 -0.71102,1.0665 -0.20686,0.3238 -0.37456,0.5656 -0.48248,0.7365 -0.0989,0.099 -0.16717,0.1063 -0.20315,0.025 -0.036,-0.09 -0.0418,-0.2428 -0.0508,-0.4316 -1e-5,-0.1979 0.007,-0.4249 0.0254,-0.6857 0.018,-0.2698 0.0254,-0.5263 0.0254,-0.7872 0.009,-0.2698 0.009,-0.5115 0,-0.7364 -0.009,-0.2338 -0.0386,-0.4163 -0.10157,-0.5332 -0.054,-0.1259 -0.13703,-0.1794 -0.25394,-0.1524 -0.11692,0.018 -0.30102,0.1635 -0.50787,0.4063 -0.26981,0.3148 -0.48036,0.5788 -0.66023,0.8126 -0.17987,0.2248 -0.36239,0.4534 -0.53326,0.6602 -0.16189,0.1979 -0.3444,0.3862 -0.53327,0.5841 -0.18886,0.1978 -0.40682,0.4084 -0.68562,0.6602 l 0,-0.4571 c 0.027,-0.072 0.0804,-0.192 0.15236,-0.3809 0.0719,-0.1888 0.1476,-0.3772 0.22854,-0.584 0.0809,-0.2159 0.1566,-0.4296 0.22854,-0.6095 0.0719,-0.1888 0.12538,-0.3089 0.15236,-0.3809 0.054,-0.1529 0.0524,-0.3042 0.0254,-0.4571 -0.027,-0.1618 -0.0804,-0.2909 -0.15236,-0.3809 -0.0719,-0.09 -0.15501,-0.1195 -0.25394,-0.1015 -0.0899,0.018 -0.17299,0.1068 -0.25393,0.3047 -0.22484,0.5576 -0.42799,1.157 -0.63484,1.7775 -0.19786,0.6116 -0.38778,1.2036 -0.55866,1.7522 -0.063,0.1529 -0.0868,0.264 -0.0508,0.3809 0.045,0.1079 0.11321,0.2074 0.20315,0.2793 0.0989,0.063 0.22061,0.1 0.35551,0.127 0.1349,0.018 0.25499,0.02 0.3809,-0.025 0.19786,-0.1889 0.39519,-0.41 0.58406,-0.6349 l 0.60944,-0.6856 c 0.20685,-0.2338 0.40259,-0.4608 0.60944,-0.6856 0.20685,-0.2248 0.43539,-0.4222 0.66024,-0.5841 0.018,-0.018 0.0238,-0.025 0.0508,-0.025 0.036,0 0.0582,0.01 0.0762,0.025 0,0.1889 0.007,0.3921 0.0254,0.6349 0.018,0.2428 0.0566,0.4936 0.10157,0.7364 0.054,0.2428 0.12961,0.4698 0.22854,0.6856 0.0989,0.2159 0.25182,0.3984 0.43169,0.5333 0.0899,0.072 0.16558,0.109 0.22854,0.127 0.063,0.018 0.1074,0.027 0.15236,0 0.054,-0.027 0.0984,-0.081 0.15237,-0.1524 0.0539,-0.072 0.12219,-0.1624 0.20314,-0.2793 0.027,-0.036 0.0968,-0.1281 0.17776,-0.254 0.0899,-0.1259 0.1878,-0.2608 0.30472,-0.4317 0.11691,-0.1708 0.22959,-0.3698 0.35551,-0.5586 0.1349,-0.1889 0.27297,-0.346 0.3809,-0.5079 0.11691,-0.1709 0.19838,-0.3148 0.27933,-0.4317 0.0899,-0.1259 0.15077,-0.2179 0.17776,-0.2539 0.063,-0.09 0.19361,-0.2174 0.3555,-0.4063 0.16188,-0.1889 0.32641,-0.401 0.53327,-0.6349 0.21584,-0.2338 0.44437,-0.4845 0.66023,-0.7364 0.22483,-0.2608 0.42956,-0.4951 0.60944,-0.711 0.18886,-0.2248 0.32377,-0.4221 0.43169,-0.584 0.11691,-0.1619 0.18675,-0.2688 0.17776,-0.3048 -0.0742,-0.011 -0.15265,0 -0.22854,0 z m -90.426307,-0.1777 c -0.05621,0 -0.131202,0.019 -0.203148,0.051 -0.4227,0.1619 -0.830583,0.3962 -1.244282,0.711 -0.404712,0.3058 -0.790376,0.6306 -1.168101,0.9903 -0.377731,0.3598 -0.750169,0.7396 -1.091922,1.1174 -0.332761,0.3687 -0.618967,0.7025 -0.888773,0.9903 -0.07195,0.2248 -0.14178,0.4592 -0.177754,0.711 -0.02698,0.2429 -0.01958,0.4608 0.02539,0.6856 0.04497,0.2249 0.144426,0.446 0.279329,0.6349 0.143896,0.1799 0.339638,0.3163 0.609444,0.4063 0.287792,0.099 0.673456,0.1375 1.168102,0.1016 0.494641,-0.045 1.027376,-0.1445 1.549004,-0.2794 0.521621,-0.1439 0.997749,-0.3174 1.447431,-0.5332 0.44967,-0.2159 0.767089,-0.4502 0.964953,-0.7111 l -0.152361,-0.1523 c -0.269811,0.072 -0.618443,0.1534 -1.041134,0.2793 -0.422701,0.1169 -0.861797,0.2386 -1.320463,0.3555 -0.449679,0.1079 -0.905176,0.2074 -1.345856,0.2794 -0.431691,0.063 -0.786143,0.061 -1.091921,0.025 -0.296788,-0.1708 -0.425872,-0.3518 -0.380903,-0.5586 0.04497,-0.2069 0.188863,-0.4026 0.43169,-0.6095 0.242824,-0.2158 0.536436,-0.4443 0.914166,-0.6602 0.377726,-0.2158 0.764977,-0.4116 1.142709,-0.6094 0.377724,-0.2069 0.709956,-0.4132 1.01574,-0.5841 0.314769,-0.1709 0.52691,-0.3058 0.634838,-0.4317 0.04496,-0.054 0.107388,-0.1608 0.152361,-0.3047 0.04496,-0.1439 0.07459,-0.3026 0.101574,-0.4825 0.02698,-0.1798 0.05078,-0.3698 0.05079,-0.5586 0.009,-0.1889 -0.01482,-0.3386 -0.05079,-0.4825 -0.03598,-0.1439 -0.08782,-0.2672 -0.177754,-0.3301 -0.04047,-0.036 -0.09615,-0.049 -0.152362,-0.051 z m 18.13097,-0.2793 c -0.188869,0.045 -0.40683,0.1354 -0.685625,0.2793 -0.278803,0.1439 -0.57559,0.3026 -0.86338,0.4825 -0.278802,0.1798 -0.544375,0.3624 -0.787199,0.5332 -0.242827,0.1709 -0.407356,0.3164 -0.533264,0.4063 -0.341755,0.2339 -0.555484,0.4058 -0.609444,0.5587 -0.04497,0.1439 0.0085,0.2656 0.152361,0.3555 0.143896,0.09 0.356038,0.1746 0.634838,0.2285 0.287791,0.054 0.58299,0.098 0.888773,0.1524 0.314771,0.045 0.626371,0.089 0.914167,0.1524 0.296783,0.054 0.523737,0.146 0.685624,0.2539 0.16188,0.099 0.221131,0.2354 0.203149,0.4063 -0.009,0.1619 -0.160301,0.3576 -0.457084,0.6094 -0.06296,0.054 -0.190454,0.146 -0.406296,0.254 -0.215848,0.099 -0.474015,0.2206 -0.761805,0.3555 -0.278802,0.1349 -0.582995,0.2788 -0.888773,0.4317 -0.305782,0.1529 -0.553369,0.2878 -0.787199,0.4317 -0.22484,0.1349 -0.399949,0.2803 -0.507871,0.4063 -0.09893,0.1169 -0.107922,0.2073 0,0.2793 0.06295,0.045 0.245471,0.021 0.533264,-0.051 0.287792,-0.072 0.612617,-0.1862 0.990347,-0.3301 0.38672,-0.1439 0.805183,-0.301 1.218889,-0.5079 0.413699,-0.2068 0.777143,-0.4264 1.091921,-0.6602 0.323763,-0.2339 0.54913,-0.4682 0.711018,-0.711 0.161879,-0.2429 0.185685,-0.4952 0.05079,-0.7111 -0.125914,-0.2158 -0.428519,-0.4041 -0.914166,-0.584 -0.476661,-0.1799 -1.205136,-0.3074 -2.158449,-0.4063 -0.05396,-0.027 -0.082,-0.073 -0.126967,-0.127 -0.03598,-0.054 -0.05238,-0.1312 -0.02539,-0.2031 0.476656,-0.3238 0.954371,-0.6116 1.422037,-0.8634 0.476654,-0.2518 0.960188,-0.4994 1.472824,-0.7872 0.116911,-0.063 0.177749,-0.1476 0.177754,-0.2285 0.009,-0.081 -0.01323,-0.1402 -0.07618,-0.2032 -0.06296,-0.072 -0.146017,-0.1418 -0.253935,-0.1777 -0.09893,-0.036 -0.205797,-0.043 -0.304722,-0.025 z m 12.087312,-0.127 c 0.134904,0 0.247584,0.041 0.355509,0.127 0.08094,0.5756 0.04391,1.1585 -0.126967,1.7521 -0.161889,0.5936 -0.396249,1.1618 -0.711019,1.7014 -0.314778,0.5306 -0.670816,1.0067 -1.066527,1.4474 -0.395719,0.4317 -0.799369,0.7893 -1.168102,1.0411 -0.368737,0.2519 -0.686155,0.3794 -0.964953,0.4063 -0.278801,0.018 -0.452323,-0.1185 -0.533264,-0.4063 -0.07195,-0.2518 -0.03333,-0.6004 0.101574,-1.0411 0.143895,-0.4407 0.339637,-0.902 0.609444,-1.3966 0.269805,-0.5037 0.58881,-0.9872 0.93956,-1.4729 0.359739,-0.4946 0.706783,-0.9189 1.066528,-1.2696 0.368731,-0.3598 0.717362,-0.6089 1.041134,-0.7618 0.161881,-0.081 0.32218,-0.1293 0.457083,-0.127 z m -0.253935,-0.3301 c -0.266435,0 -0.536044,0.05 -0.812592,0.1777 -0.368739,0.1619 -0.748583,0.4365 -1.117315,0.7872 -0.368737,0.3418 -0.700969,0.7275 -1.015741,1.1681 -0.314775,0.4317 -0.595162,0.8856 -0.837986,1.3713 -0.233832,0.4766 -0.407355,0.9306 -0.533263,1.3712 -0.116917,0.4407 -0.170349,0.8428 -0.152361,1.1935 0.02698,0.3508 0.139663,0.6074 0.355509,0.7872 0.242824,0.2069 0.500991,0.3286 0.761805,0.3555 0.269804,0.027 0.526385,0.014 0.787199,-0.076 0.26081,-0.09 0.518977,-0.2265 0.761806,-0.4063 0.251815,-0.1799 0.49517,-0.3862 0.711018,-0.5841 0.224835,-0.2068 0.420576,-0.4116 0.609444,-0.6094 0.18886,-0.2069 0.34757,-0.3566 0.482477,-0.4825 0.107917,0.081 0.183569,0.1714 0.228542,0.2793 0.05396,0.1079 0.129607,0.2222 0.228541,0.3301 0.206846,0.2519 0.47242,0.4106 0.787199,0.4825 0.323761,0.063 0.655992,0.054 1.015741,0 0.359734,-0.063 0.739578,-0.1682 1.117314,-0.3301 0.37772,-0.1619 0.733758,-0.3354 1.066528,-0.5333 0.32185,-0.1913 0.608822,-0.3842 0.86338,-0.584 -0.01624,0.079 -0.03498,0.1475 -0.05079,0.2285 -0.07195,0.3688 -0.132787,0.71 -0.177754,1.0158 -0.04497,0.3057 -0.07459,0.5803 -0.101574,0.7872 -0.01799,0.1978 -0.01799,0.2957 0,0.3047 0.03597,0.018 0.105806,0.057 0.177754,0.1016 0.07195,0.036 0.09258,0.051 0.101574,0.051 0.07195,0 0.20262,-0.1603 0.35551,-0.457 0.161884,-0.2968 0.350219,-0.6677 0.584051,-1.1174 0.242827,-0.4496 0.514216,-0.9258 0.837985,-1.4474 0.323762,-0.5306 0.696205,-1.0231 1.091922,-1.4728 0.395708,-0.4497 0.827397,-0.8369 1.295067,-1.1427 0.46766,-0.3058 0.9586,-0.4481 1.49822,-0.4571 0.11691,-0.1799 0.16453,-0.3089 0.10158,-0.3809 -0.054,-0.081 -0.16824,-0.127 -0.33012,-0.127 -0.1529,-0.01 -0.33382,0.01 -0.55866,0.051 -0.21585,0.036 -0.42799,0.089 -0.63484,0.1524 -0.20685,0.054 -0.39678,0.1148 -0.55865,0.1777 -0.16189,0.054 -0.268754,0.1 -0.304727,0.127 -0.368738,0.2338 -0.709962,0.4888 -1.015741,0.8126 -0.296791,0.3148 -0.560778,0.665 -0.812592,1.0157 -0.07195,0.054 -0.140197,0.038 -0.203148,-0.025 -0.06296,-0.072 -0.140197,-0.1476 -0.203148,-0.2285 -0.06296,-0.09 -0.114803,-0.1492 -0.177755,-0.2031 -0.06296,-0.063 -0.114803,-0.063 -0.177755,0 -0.08994,0.099 -0.205797,0.2724 -0.304722,0.5332 -0.07738,0.2167 -0.157821,0.4786 -0.228541,0.7618 l -0.228542,0.1524 c -0.224848,0.1619 -0.512641,0.3428 -0.863379,0.5586 -0.341764,0.2159 -0.712615,0.4444 -1.117315,0.6603 -0.404717,0.2158 -0.773981,0.3835 -1.142708,0.4824 -0.359749,0.099 -0.678754,0.1138 -0.93956,0.051 -0.260819,-0.063 -0.412121,-0.2677 -0.457084,-0.6094 -0.03598,-0.2698 -0.02857,-0.5518 0.02539,-0.8126 0.06295,-0.2608 0.138601,-0.51 0.228542,-0.7618 0.09892,-0.2518 0.205787,-0.4936 0.304722,-0.7364 0.09892,-0.2518 0.158174,-0.5026 0.203148,-0.7364 0.04496,-0.2429 0.06136,-0.4608 0.02539,-0.6857 -0.03598,-0.2338 -0.150251,-0.4861 -0.330115,-0.711 -0.287799,-0.3597 -0.614211,-0.5391 -0.964954,-0.584 -0.08769,-0.014 -0.165123,-0.026 -0.253935,-0.025 z m 30.1421,-1.3713 -1.82833,3.6567 -0.15236,0.1778 c -0.57559,-0.1619 -1.09616,-0.2318 -1.59979,-0.1778 -0.49465,0.045 -0.95756,0.1666 -1.37125,0.3555 -0.40472,0.1889 -0.77715,0.4396 -1.09193,0.7364 -0.31477,0.2968 -0.56394,0.6068 -0.7618,0.9396 -0.19786,0.3237 -0.32535,0.6412 -0.4063,0.9649 -0.02,0.08 -0.0136,0.1533 -0.0254,0.2286 -0.24904,0.068 -0.52895,0.1213 -0.88877,0.2285 -0.42271,0.1169 -0.8618,0.2386 -1.32047,0.3555 -0.44968,0.1079 -0.90518,0.2074 -1.34585,0.2794 -0.43169,0.063 -0.78614,0.061 -1.09192,0.025 -0.29679,-0.1708 -0.42587,-0.3518 -0.38091,-0.5586 0.045,-0.2069 0.18887,-0.4026 0.43169,-0.6095 0.24283,-0.2158 0.56183,-0.4443 0.93956,-0.6602 0.37773,-0.2158 0.73958,-0.4116 1.11732,-0.6094 0.37772,-0.2069 0.73535,-0.4132 1.04113,-0.5841 0.31477,-0.1709 0.52691,-0.3058 0.63484,-0.4317 0.045,-0.054 0.082,-0.1608 0.12697,-0.3047 0.045,-0.1439 0.0746,-0.3026 0.10157,-0.4825 0.027,-0.1798 0.0508,-0.3698 0.0508,-0.5586 0.009,-0.1889 -0.0148,-0.3386 -0.0508,-0.4825 -0.036,-0.1439 -0.0878,-0.2672 -0.17775,-0.3301 -0.081,-0.072 -0.21162,-0.063 -0.35551,0 -0.4227,0.1619 -0.83059,0.3962 -1.24428,0.711 -0.40472,0.3058 -0.79038,0.6306 -1.16811,0.9903 -0.37773,0.3598 -0.75016,0.7396 -1.09192,1.1174 -0.33276,0.3687 -0.61896,0.7025 -0.88877,0.9903 -0.0719,0.2248 -0.14178,0.4592 -0.17775,0.711 -0.027,0.2429 -0.0196,0.4608 0.0254,0.6856 0.045,0.2249 0.14442,0.446 0.27933,0.6349 0.14389,0.1799 0.36503,0.3163 0.63484,0.4063 0.28778,0.099 0.67345,0.1375 1.1681,0.1016 0.49464,-0.045 1.00198,-0.1445 1.52361,-0.2794 0.52162,-0.1439 0.99775,-0.3174 1.44743,-0.5332 0.24032,-0.1154 0.44104,-0.2527 0.60944,-0.3809 0.005,0.066 0.0119,0.1422 0.0254,0.2031 0.063,0.2338 0.19944,0.4074 0.40629,0.5333 0.20686,0.1259 0.49464,0.1645 0.86338,0.1015 0.36873,-0.072 0.81524,-0.2618 1.34586,-0.5586 0.53961,-0.2968 1.17603,-0.7523 1.90451,-1.3459 l 0.15236,0 c 0.072,0.3958 0.17722,0.7666 0.33012,1.1173 0.15288,0.3418 0.39465,0.6296 0.73641,0.8634 0.027,0.018 0.10422,0.064 0.20315,0.127 0.0989,0.063 0.21319,0.1328 0.33011,0.1778 0.11691,0.045 0.22219,0.06 0.33012,0.051 0.10791,0 0.16717,-0.061 0.20315,-0.1777 -0.081,-0.1169 -0.17882,-0.2238 -0.30472,-0.3047 -0.11693,-0.081 -0.22961,-0.1476 -0.35551,-0.2286 -0.11693,-0.09 -0.2222,-0.2058 -0.33012,-0.3047 -0.10793,-0.1079 -0.19258,-0.2444 -0.22854,-0.4063 -0.027,-0.3418 -0.0582,-0.6724 -0.0762,-1.0411 -0.009,-0.3778 0.0666,-0.7338 0.22854,-1.0666 0.018,-0.045 0.0714,-0.1518 0.15236,-0.3047 0.0809,-0.1619 0.1804,-0.3518 0.27933,-0.5586 l 0.33012,-0.6603 c 0.1169,-0.2338 0.23118,-0.4787 0.33011,-0.6856 0.10791,-0.2158 0.20738,-0.3804 0.27933,-0.5333 0.0809,-0.1528 0.12538,-0.2761 0.15236,-0.3301 0.045,-0.09 0.1132,-0.2338 0.20315,-0.4317 0.0989,-0.2068 0.15817,-0.3936 0.20315,-0.6094 0.054,-0.2158 0.0704,-0.4296 0.0254,-0.6095 -0.045,-0.1798 -0.18887,-0.2941 -0.43169,-0.3301 z m -14.72824,-0.6348 c -0.0405,0 -0.1029,-0.01 -0.15236,0.025 -0.16188,0.2788 -0.30419,0.6052 -0.45708,0.9649 -0.1439,0.3598 -0.28039,0.7232 -0.4063,1.092 -0.12591,0.3687 -0.23859,0.7247 -0.35551,1.0665 -0.10793,0.3328 -0.22378,0.6295 -0.30472,0.8634 -0.13491,0.1888 -0.29943,0.3015 -0.53326,0.3555 -0.22484,0.054 -0.45921,0.1 -0.71102,0.1269 -0.25182,0.027 -0.49518,0.08 -0.71102,0.1524 -0.21585,0.063 -0.37456,0.2069 -0.48248,0.4317 0.072,0.1799 0.19363,0.2687 0.35551,0.3047 0.17088,0.027 0.3444,0.027 0.53327,0 0.19785,-0.036 0.38619,-0.057 0.58405,-0.1016 0.19786,-0.054 0.37296,-0.094 0.50787,-0.076 0.027,0.1529 0.0196,0.337 -0.0254,0.5078 -0.045,0.1619 -0.091,0.3058 -0.12696,0.4317 -0.027,0.099 -0.0804,0.2651 -0.15236,0.5079 -0.072,0.2428 -0.1476,0.5084 -0.22855,0.7872 -0.0809,0.2698 -0.15659,0.51 -0.22854,0.7618 -0.0719,0.2428 -0.12538,0.4343 -0.15236,0.5333 -0.009,0.027 0,0.071 0,0.1523 0,0.081 -0.009,0.1344 0,0.1524 0.036,0.099 0.0984,0.1434 0.15236,0.1523 0.0629,0.01 0.1148,0.011 0.17776,-0.025 0.063,-0.045 0.12379,-0.098 0.17775,-0.1524 0.054,-0.063 0.0836,-0.1254 0.10158,-0.1524 0.17986,-0.6205 0.36079,-1.2257 0.55865,-1.8283 0.19786,-0.6116 0.4264,-1.2258 0.66023,-1.8283 0.081,-0.1889 0.23224,-0.3164 0.45709,-0.4063 0.22483,-0.099 0.483,-0.1672 0.7618,-0.2032 0.28779,-0.045 0.58299,-0.076 0.88878,-0.076 0.31476,-0.01 0.59515,-0.016 0.83798,-0.025 0.24282,-0.018 0.44015,-0.031 0.58405,-0.076 0.1439,-0.045 0.17193,-0.1281 0.12697,-0.254 -0.027,-0.036 -0.0402,-0.098 -0.0762,-0.1523 -0.036,-0.063 -0.0672,-0.1016 -0.0762,-0.1016 l -2.89486,0 c -0.063,-0.2428 -0.063,-0.492 0,-0.7618 0.072,-0.2698 0.1714,-0.5428 0.27933,-0.8126 0.11691,-0.2698 0.2296,-0.5264 0.35551,-0.7872 0.1349,-0.2698 0.22536,-0.528 0.27933,-0.7618 0.009,-0.036 0.009,-0.095 0,-0.2032 -0.009,-0.1079 -0.0402,-0.2057 -0.0762,-0.3047 -0.027,-0.1079 -0.064,-0.1999 -0.12696,-0.2539 -0.0315,-0.027 -0.0611,-0.028 -0.10158,-0.025 z m -21.838419,0 c -0.04047,0 -0.07751,-0.01 -0.126968,0.025 -0.161887,0.2788 -0.32959,0.6052 -0.482476,0.9649 -0.143901,0.3598 -0.28039,0.7232 -0.406297,1.092 -0.125912,0.3687 -0.238595,0.7247 -0.355509,1.0665 -0.107925,0.3328 -0.198389,0.6295 -0.279328,0.8634 -0.134906,0.1888 -0.324828,0.3015 -0.558658,0.3555 -0.22484,0.054 -0.459201,0.1 -0.711018,0.1269 -0.25182,0.027 -0.495174,0.08 -0.711018,0.1524 -0.215846,0.063 -0.374555,0.2069 -0.482477,0.4317 0.07195,0.1799 0.193625,0.2687 0.355509,0.3047 0.170877,0.027 0.344399,0.027 0.533264,0 0.197856,-0.036 0.411585,-0.057 0.609444,-0.1016 0.197856,-0.054 0.347572,-0.094 0.482477,-0.076 0.02698,0.1529 0.01957,0.337 -0.02539,0.5078 -0.04497,0.1619 -0.09099,0.3058 -0.126967,0.4317 -0.02698,0.099 -0.05502,0.2651 -0.126968,0.5079 -0.07195,0.2428 -0.147602,0.5084 -0.228541,0.7872 -0.08094,0.2698 -0.156595,0.51 -0.228542,0.7618 -0.07195,0.2428 -0.125381,0.4343 -0.152361,0.5333 -0.009,0.027 -0.02539,0.071 -0.02539,0.1523 0,0.081 0.0164,0.1344 0.02539,0.1524 0.03597,0.099 0.073,0.1434 0.126967,0.1523 0.06295,0.01 0.114799,0.011 0.177755,-0.025 0.06295,-0.045 0.123792,-0.098 0.177755,-0.1524 0.05396,-0.063 0.108978,-0.1254 0.126967,-0.1524 0.179869,-0.6205 0.360798,-1.2257 0.558657,-1.8283 0.197855,-0.6116 0.401003,-1.2258 0.634838,-1.8283 0.08094,-0.1889 0.232242,-0.3164 0.457084,-0.4063 0.224834,-0.099 0.483001,-0.1672 0.761805,-0.2032 0.287789,-0.045 0.582988,-0.076 0.888773,-0.076 0.314768,-0.01 0.595155,-0.016 0.837986,-0.025 0.242819,-0.018 0.440148,-0.031 0.584051,-0.076 0.14389,-0.045 0.197322,-0.1281 0.152361,-0.254 -0.02699,-0.036 -0.06561,-0.098 -0.101574,-0.1523 -0.03598,-0.063 -0.0418,-0.1016 -0.05079,-0.1016 l -2.920254,0 c -0.06296,-0.2428 -0.06296,-0.492 0,-0.7618 0.07194,-0.2698 0.171402,-0.5428 0.279328,-0.8126 0.116912,-0.2698 0.229596,-0.5264 0.35551,-0.7872 0.134898,-0.2698 0.225362,-0.528 0.279328,-0.7618 0.009,-0.036 0.009,-0.095 0,-0.2032 -0.009,-0.1079 -0.01482,-0.2057 -0.05079,-0.3047 -0.02698,-0.1079 -0.08941,-0.1999 -0.152361,-0.2539 -0.03148,-0.027 -0.0611,-0.028 -0.101574,-0.025 z m -18.384904,0 c -0.04047,0 -0.102899,-0.01 -0.152361,0.025 -0.161888,0.2788 -0.304197,0.6052 -0.457084,0.9649 -0.1439,0.3598 -0.280389,0.7232 -0.406296,1.092 -0.125913,0.3687 -0.263989,0.7247 -0.380902,1.0665 -0.107926,0.3328 -0.19839,0.6295 -0.279329,0.8634 -0.134906,0.1888 -0.324827,0.3015 -0.558657,0.3555 -0.224841,0.054 -0.459201,0.1 -0.711019,0.1269 -0.25182,0.027 -0.469781,0.08 -0.685625,0.1524 -0.215845,0.063 -0.374554,0.2069 -0.482476,0.4317 0.07195,0.1799 0.168231,0.2687 0.330115,0.3047 0.170877,0.027 0.369792,0.027 0.558658,0 0.197856,-0.036 0.386191,-0.057 0.58405,-0.1016 0.197856,-0.054 0.372966,-0.094 0.507871,-0.076 0.02698,0.1529 0.01957,0.337 -0.02539,0.5078 -0.04497,0.1619 -0.091,0.3058 -0.126967,0.4317 -0.02698,0.099 -0.08042,0.2651 -0.152362,0.5079 -0.07195,0.2428 -0.147601,0.5084 -0.228541,0.7872 -0.08094,0.2698 -0.156595,0.51 -0.228542,0.7618 -0.07195,0.2428 -0.125381,0.4343 -0.152361,0.5333 -0.009,0.027 -10e-7,0.071 0,0.1523 -10e-7,0.081 -0.009,0.1344 0,0.1524 0.03597,0.099 0.073,0.1434 0.126968,0.1523 0.06295,0.01 0.140191,0.011 0.203148,-0.025 0.06295,-0.045 0.123792,-0.098 0.177754,-0.1524 0.05396,-0.063 0.08358,-0.1254 0.101574,-0.1524 0.179869,-0.6205 0.360798,-1.2257 0.558658,-1.8283 0.197855,-0.6116 0.426396,-1.2258 0.660231,-1.8283 0.08094,-0.1889 0.232242,-0.3164 0.457083,-0.4063 0.224835,-0.099 0.483002,-0.1672 0.761806,-0.2032 0.287788,-0.045 0.582988,-0.076 0.888773,-0.076 0.314768,-0.01 0.595155,-0.016 0.837986,-0.025 0.242819,-0.018 0.414754,-0.031 0.558657,-0.076 0.14389,-0.045 0.197322,-0.1281 0.152361,-0.254 -0.02699,-0.036 -0.04021,-0.098 -0.07618,-0.1523 -0.03598,-0.063 -0.06719,-0.1016 -0.07618,-0.1016 l -2.894861,0 c -0.06296,-0.2428 -0.06296,-0.492 0,-0.7618 0.07194,-0.2698 0.14601,-0.5428 0.253936,-0.8126 0.116911,-0.2698 0.254989,-0.5264 0.380902,-0.7872 0.134899,-0.2698 0.225363,-0.528 0.279329,-0.7618 0.009,-0.036 0.009,-0.095 0,-0.2032 -0.009,-0.1079 -0.04021,-0.2057 -0.07618,-0.3047 -0.02698,-0.1079 -0.06402,-0.1999 -0.126967,-0.2539 -0.03148,-0.027 -0.0611,-0.028 -0.101574,-0.025 z m -12.188887,-0.7364 c -0.08094,0 -0.147602,0 -0.228542,0.025 -0.34176,0.018 -0.72901,0.156 -1.142708,0.3809 -0.404713,0.2158 -0.82159,0.4946 -1.244282,0.8634 -0.413705,0.3597 -0.814182,0.784 -1.218889,1.2696 -0.395717,0.4767 -0.742761,0.993 -1.066527,1.5236 -0.314775,0.5307 -0.596749,1.0676 -0.812593,1.6252 -0.215844,0.5486 -0.352335,1.0872 -0.406296,1.5998 -0.05396,0.5037 0.0085,0.965 0.152361,1.3967 0.143897,0.4317 0.391483,0.7951 0.787199,1.0919 0.188863,0.1349 0.409999,0.2031 0.634838,0.2031 0.23383,0 0.468191,-0.046 0.711018,-0.1269 0.242823,-0.081 0.493584,-0.1952 0.736412,-0.3302 0.242822,-0.1438 0.469777,-0.2788 0.685625,-0.4316 0.224835,-0.1619 0.42957,-0.3296 0.609445,-0.4825 0.179866,-0.1529 0.314769,-0.282 0.431689,-0.3809 0.116911,-0.09 0.27562,-0.21 0.482477,-0.3809 0.206846,-0.1799 0.427981,-0.3624 0.634838,-0.5333 0.215838,-0.1799 0.396767,-0.3386 0.558657,-0.4825 0.170871,-0.1439 0.268742,-0.2269 0.304722,-0.2539 0.08993,-0.081 0.241231,-0.2412 0.457084,-0.4571 0.224831,-0.2158 0.468185,-0.4428 0.711018,-0.6856 l 0.685625,-0.6856 c 0.215836,-0.2249 0.376133,-0.3672 0.457083,-0.4571 0.116907,-0.2428 0.07088,-0.3867 -0.126967,-0.4317 -0.188874,-0.054 -0.46926,-0.047 -0.837986,0.025 -0.368743,0.072 -0.809426,0.1772 -1.29507,0.3301 -0.485657,0.1529 -0.937978,0.3206 -1.396643,0.4825 -0.458675,0.1529 -0.875552,0.2968 -1.244282,0.4317 -0.359745,0.1259 -0.617912,0.2015 -0.761805,0.2285 -0.09893,0.027 -0.150778,0.079 -0.177755,0.1778 -0.02698,0.09 -0.02698,0.1968 0,0.3047 0.03597,0.099 0.09681,0.182 0.177755,0.2539 0.08993,0.063 0.178809,0.07 0.304722,0.025 0.08094,-0.036 0.241234,-0.1058 0.457083,-0.1777 l 0.685625,-0.2286 0.685625,-0.2285 c 0.224833,-0.072 0.376135,-0.1 0.457083,-0.127 0.125903,-0.045 0.2862,-0.091 0.457083,-0.127 0.170871,-0.045 0.31318,-0.052 0.457084,-0.025 0.05395,0.1079 0.0095,0.274 -0.152362,0.5078 -0.152896,0.2249 -0.388844,0.483 -0.685624,0.7618 -0.296793,0.2788 -0.645425,0.5576 -1.041135,0.8634 -0.39572,0.2968 -0.796196,0.5862 -1.218888,0.838 -0.413706,0.2428 -0.814183,0.4386 -1.218889,0.6094 -0.404712,0.1619 -0.760749,0.2614 -1.066527,0.2794 -0.305782,0.018 -0.556543,-0.067 -0.736412,-0.2286 -0.179872,-0.1709 -0.255523,-0.4497 -0.228542,-0.8634 0.03597,-0.4137 0.187277,-0.9744 0.457083,-1.6759 0.278798,-0.7015 0.717894,-1.5887 1.320463,-2.641 0.422694,-0.7284 0.944847,-1.3484 1.574398,-1.8791 0.638537,-0.5306 1.420444,-0.9178 2.31081,-1.1427 0.03597,-0.01 0.073,-0.01 0.126967,0 0.06295,0.01 0.123787,0.033 0.177755,0.051 0.06295,0.01 0.107386,0.024 0.152361,0.051 0.04496,0.018 0.07617,0.033 0.07618,0.051 l 0,1.0665 c -6e-6,0.018 0.02221,0.025 0.07618,0.025 0.06295,0 0.09998,-0.01 0.126968,-0.025 0.17087,-0.063 0.292547,-0.1534 0.355509,-0.2793 0.06295,-0.1349 0.07776,-0.2878 0.05079,-0.4317 -0.02699,-0.1529 -0.08783,-0.3042 -0.177755,-0.4571 -0.08994,-0.1529 -0.195219,-0.273 -0.330116,-0.3809 -0.134909,-0.1169 -0.286212,-0.2 -0.457083,-0.2539 -0.08094,-0.027 -0.172993,-0.049 -0.253935,-0.051 z m 101.11697,-0.2793 c -0.0562,0.022 -0.1148,0.059 -0.17775,0.1269 -0.11692,0.1349 -0.24601,0.3233 -0.3809,0.5841 -0.12592,0.2608 -0.24601,0.5634 -0.38091,0.9141 -0.1349,0.3508 -0.25499,0.7142 -0.3809,1.092 -0.12591,0.3777 -0.24759,0.7649 -0.35551,1.1427 -0.10792,0.3777 -0.20738,0.7263 -0.27933,1.0411 -0.0719,0.3058 -0.11639,0.5714 -0.15236,0.7872 -0.036,0.2158 -0.0434,0.3523 -0.0254,0.4063 0.0809,0.2518 0.16241,0.3571 0.27933,0.3301 0.11691,-0.027 0.25499,-0.156 0.3809,-0.3809 0.12591,-0.2248 0.246,-0.52 0.3809,-0.8888 0.1349,-0.3777 0.26399,-0.7872 0.3809,-1.2189 0.12591,-0.4316 0.24759,-0.8707 0.35551,-1.3204 0.11692,-0.4497 0.19839,-0.8502 0.27933,-1.2189 0.0809,-0.3777 0.14178,-0.6877 0.17776,-0.9396 0.045,-0.2608 0.0852,-0.4121 0.0762,-0.457 -0.0495,-0.023 -0.12155,-0.023 -0.17776,0 z" />
    </g>
  </g>
</svg>
